<?xml version="1.0" encoding="UTF-8"?> <svg xmlns="http://www.w3.org/2000/svg" id="_Слой_2" data-name="Слой 2" viewBox="0 0 588.75 391.39"> <defs> <style> .cls-1 { fill: #fff; } .cls-2 { fill: #1baa6e; } </style> </defs> <g id="_Слой_1-2" data-name="Слой 1"> <g> <path class="cls-2" d="M586.14,.01c-63.75-.01-127.5-.04-191.25,.11-1.9,0-4.39,1.48-5.61,3.05-24.48,31.49-48.84,63.09-73.13,94.72-1.34,1.75-2.71,4.05-2.75,6.12-.2,10.98,.02,21.96,.09,32.94-.08,19.89-.21,39.78-.22,59.67,0,18.73,.12,37.46,.18,56.19,0,5.57,0,11.13,0,16.97-18,0-34.95,.07-51.9-.06-3.24-.03-5.35,.8-7.47,3.51-29.1,37.1-58.36,74.08-87.56,111.1-1.55,1.97-2.92,4.08-5.03,7.06h7.13c84.18,0,168.35,0,252.53,0q13.08,0,13.06-13.33c-.11-41.75-.23-83.5-.34-125.25h0c0-38.62-.01-77.24-.02-115.86,0-11.76,0-23.52,0-35.84,2.57,0,4.36,0,6.14,0,21.8,.03,43.61,.13,65.41-.02,2.21-.02,5.12-.95,6.48-2.52,7.31-8.46,14.36-17.15,21.25-25.96,13-16.63,25.85-33.39,38.73-50.11,5.54-7.19,11.01-14.42,16.87-22.09-1.39-.21-2-.39-2.61-.39Z"></path> <path class="cls-1" d="M356.95,.04c-91.88,0-183.75-.02-275.63,.11-1.78,0-4.1,1.29-5.25,2.72-6.23,7.74-12.18,15.71-18.22,23.61-15.83,20.67-31.67,41.33-47.5,62-3.36,4.19-6.71,8.38-10.35,12.92H129.54v49.52c0,13.65,0,27.3-.01,40.95-.08,15.98-.16,31.97-.24,47.95-.03,20.29-.06,40.57-.09,60.86-.12,.81-.35,1.63-.35,2.44-.01,28.42,0,56.84,.02,85.26,0,.52,.3,1.03,.65,2.17,9.98-12.58,19.56-24.61,29.09-36.69,13.94-17.68,27.85-35.4,41.77-53.1,10.92-13.65,21.91-27.26,32.75-40.98,5.18-6.55,10.1-13.3,15.14-19.97h0c.66-1.36,1.88-2.71,1.89-4.07,.06-14.62-.07-29.25-.15-43.88-.03-13.65-.05-27.3-.08-40.96v-49.11c9.7,0,18.79,.05,27.89-.05,1.52-.02,3.61-.2,4.45-1.17,2.58-2.97,4.67-6.36,6.95-9.58,.5-.41,1.1-.75,1.49-1.25,22.37-29.08,44.72-58.17,67.06-87.28,.44-.57,.66-1.32,1.06-2.13-.89-.15-1.38-.29-1.87-.29Z"></path> </g> </g> </svg> 